<svg aria-hidden="true" style="position: absolute; width: 0; height: 0; overflow: hidden;" version="1.1" xmlns="http://www.w3.org/2000/svg" xmlns:xlink="http://www.w3.org/1999/xlink">
<defs>
<symbol id="icon-Vector-btn" viewBox="0 0 22 32">
<path fill="none" stroke="#d41443" style="stroke: var(--color1, #d41443)" stroke-linejoin="round" stroke-linecap="round" stroke-miterlimit="4" stroke-width="6.4" d="M3.321 3.2l14.974 12.8-14.974 12.8"></path>
</symbol>
<symbol id="icon-Burger" viewBox="0 0 46 32">
<path fill="none" stroke="#d41443" style="stroke: var(--color1, #d41443)" stroke-linejoin="miter" stroke-linecap="butt" stroke-miterlimit="4" stroke-width="2.2857" d="M0 2.286h45.714"></path>
<path fill="none" stroke="#d41443" style="stroke: var(--color1, #d41443)" stroke-linejoin="miter" stroke-linecap="butt" stroke-miterlimit="4" stroke-width="2.2857" d="M0 16h45.714"></path>
<path fill="none" stroke="#d41443" style="stroke: var(--color1, #d41443)" stroke-linejoin="miter" stroke-linecap="butt" stroke-miterlimit="4" stroke-width="2.2857" d="M0 29.714h45.714"></path>
</symbol>
<symbol id="icon-close-mob-menu" viewBox="0 0 32 32">
<path fill="none" stroke="#fff" style="stroke: var(--color2, #fff)" stroke-linejoin="miter" stroke-linecap="butt" stroke-miterlimit="4" stroke-width="2" d="M2.519 2l26.963 28"></path>
<path fill="none" stroke="#fff" style="stroke: var(--color2, #fff)" stroke-linejoin="miter" stroke-linecap="butt" stroke-miterlimit="4" stroke-width="2" d="M2 29.481l28-26.963"></path>
</symbol>
<symbol id="icon-logo" viewBox="0 0 32 32">
<path fill="#ffc477" style="fill: var(--color1, #ffc477)" d="M9.273 16.322l5.861 14.969c0.168 0.429 0.563 0.708 1.002 0.708s0.833-0.279 1.002-0.708l5.875-14.969h-13.739z"></path>
<path fill="#ffa733" style="fill: var(--color2, #ffa733)" d="M9.273 16.322l5.861 14.969c0.168 0.429 0.563 0.708 1.002 0.708s0.833-0.279 1.002-0.708l0.325-0.828-5.536-14.141h-2.653z"></path>
<path fill="#ffa733" style="fill: var(--color2, #ffa733)" d="M19.465 21.284l-1.087-1.087 1.087-1.087 1.087 1.087-1.087 1.087z"></path>
<path fill="#ffa733" style="fill: var(--color2, #ffa733)" d="M18.378 23.871l-1.087-1.087 1.087-1.087 1.087 1.087-1.087 1.087z"></path>
<path fill="#ffa733" style="fill: var(--color2, #ffa733)" d="M17.462 26.334l-1.087-1.087 1.087-1.087 1.087 1.087-1.087 1.087z"></path>
<path fill="#ffa733" style="fill: var(--color2, #ffa733)" d="M16.723 22.071l-1.087-1.087 1.087-1.087 1.087 1.087-1.087 1.087z"></path>
<path fill="#e4187a" style="fill: var(--color3, #e4187a)" d="M20.4 0.22c-2.011 1.815-5.819 1.746-5.819 1.746-1.978-0.001-3.597 1.617-3.597 3.595v0c-0.001 1.978 1.617 3.597 3.595 3.597l3.245 0.001c0.875 0 1.679-0.316 2.304-0.84 2.101-1.448 1.858-5.076 1.483-7.309-0.288-1.638-1.211-0.79-1.211-0.79z"></path>
<path fill="#c61469" style="fill: var(--color4, #c61469)" d="M17.754 8.735c-1.611-0.001-2.983-1.075-3.436-2.543h2.476c0.27 0 0.489-0.219 0.489-0.489s-0.219-0.489-0.489-0.489h-2.633c-0.001-0.025-0.002-0.050-0.002-0.076v0c0.001-1.476 0.902-2.751 2.182-3.303-1.010 0.143-1.76 0.13-1.76 0.13-1.978-0.001-3.597 1.617-3.597 3.595v0c-0.001 1.978 1.617 3.597 3.595 3.597l3.245 0.001c0.608 0 1.182-0.153 1.685-0.422l-1.755-0.001z"></path>
<path fill="#ea3486" style="fill: var(--color5, #ea3486)" d="M18.981 13.387l-5.693-0.002c-1.929-0.001-3.507-1.579-3.506-3.508l0-0.178c0.001-1.929 1.579-3.507 3.508-3.506l5.693 0.002c1.929 0.001 3.507 1.58 3.506 3.508l-0 0.178c-0.001 1.929-1.579 3.507-3.508 3.506z"></path>
<path fill="#e4187a" style="fill: var(--color3, #e4187a)" d="M19.555 10.83h-0.76c-0.277 0-0.502-0.225-0.502-0.502s0.225-0.502 0.502-0.502h0.76c0.277 0 0.502 0.225 0.502 0.502s-0.225 0.502-0.502 0.502z"></path>
<path fill="#e4187a" style="fill: var(--color3, #e4187a)" d="M16.855 9.852h-3.898l0-0.153c0.001-1.914 1.556-3.482 3.464-3.505l-3.131-0.001c-1.929-0.001-3.508 1.577-3.508 3.506l-0 0.178c-0.001 1.929 1.577 3.508 3.506 3.508h3.175c-1.598-0.001-2.955-1.085-3.373-2.554h3.764c0.27 0 0.489-0.219 0.489-0.489s-0.219-0.489-0.489-0.489z"></path>
<path fill="#f072ae" style="fill: var(--color6, #f072ae)" d="M20.131 18.024l-8.264-0.003c-1.929-0.001-3.507-1.579-3.506-3.508l0-0.178c0.001-1.929 1.579-3.507 3.508-3.506l8.264 0.003c1.929 0.001 3.507 1.579 3.506 3.508l-0 0.178c-0.001 1.929-1.579 3.507-3.508 3.506z"></path>
<path fill="#ea3486" style="fill: var(--color5, #ea3486)" d="M21.076 16.234c-0.147 0-0.292-0.066-0.388-0.191-0.165-0.214-0.125-0.521 0.089-0.686 0.264-0.203 0.415-0.509 0.415-0.84 0-0.27 0.219-0.489 0.489-0.489 0 0 0 0 0 0 0.27 0 0.489 0.219 0.489 0.49-0 0.637-0.291 1.226-0.797 1.615-0.089 0.069-0.194 0.102-0.298 0.102z"></path>
<path fill="#ea3486" style="fill: var(--color5, #ea3486)" d="M19.175 16.555c-0 0-0 0-0 0l-4.8-0.002c-0.27-0-0.489-0.219-0.489-0.49s0.219-0.489 0.489-0.489c0 0 0 0 0 0l4.8 0.002c0.27 0 0.489 0.219 0.489 0.49s-0.219 0.489-0.489 0.489z"></path>
<path fill="#ea3486" style="fill: var(--color5, #ea3486)" d="M11.536 14.509l0-0.178c0.001-1.876 1.494-3.419 3.35-3.502l-3.017-0.001c-1.929-0.001-3.508 1.577-3.508 3.506l-0 0.178c-0.001 1.929 1.577 3.508 3.506 3.508l3.175-0.003c-1.929-0.001-3.507-1.579-3.506-3.508z"></path>
<path fill="#ffeb99" style="fill: var(--color7, #ffeb99)" d="M15.063 13.384c0 0.468-0.379 0.848-0.848 0.848s-0.848-0.379-0.848-0.848c0-0.468 0.379-0.848 0.848-0.848s0.848 0.379 0.848 0.848z"></path>
<path fill="#9cdd05" style="fill: var(--color8, #9cdd05)" d="M16.976 7.92c0 0.331-0.269 0.6-0.6 0.6s-0.6-0.269-0.6-0.6c0-0.332 0.269-0.6 0.6-0.6s0.6 0.269 0.6 0.6z"></path>
<path fill="#9cdd05" style="fill: var(--color8, #9cdd05)" d="M17.511 13.965c0 0.332-0.269 0.6-0.6 0.6s-0.6-0.269-0.6-0.6c0-0.332 0.269-0.6 0.6-0.6s0.6 0.269 0.6 0.6z"></path>
<path fill="#9cdd05" style="fill: var(--color8, #9cdd05)" d="M20.644 4.157c0 0.332-0.269 0.6-0.6 0.6s-0.6-0.269-0.6-0.6c0-0.332 0.269-0.6 0.6-0.6s0.6 0.269 0.6 0.6z"></path>
<path fill="#ffeb99" style="fill: var(--color7, #ffeb99)" d="M19.555 8.167c0 0.468-0.379 0.848-0.848 0.848s-0.848-0.379-0.848-0.848c0-0.468 0.379-0.848 0.848-0.848s0.848 0.379 0.848 0.848z"></path>
<path fill="#ffeb99" style="fill: var(--color7, #ffeb99)" d="M18.359 4.157c0 0.468-0.379 0.848-0.848 0.848s-0.848-0.379-0.848-0.848c0-0.468 0.379-0.848 0.848-0.848s0.848 0.379 0.848 0.848z"></path>
</symbol>
</defs>
</svg>
