<svg aria-hidden="true" style="position: absolute; width: 0; height: 0; overflow: hidden;" version="1.1" xmlns="http://www.w3.org/2000/svg" xmlns:xlink="http://www.w3.org/1999/xlink">
<defs>
<symbol id="icon-Vector-btn" viewBox="0 0 22 32">
<path fill="none" stroke="#d41443" style="stroke: var(--color1, #d41443)" stroke-linejoin="round" stroke-linecap="round" stroke-miterlimit="4" stroke-width="6.4" d="M3.321 3.2l14.974 12.8-14.974 12.8"></path>
</symbol>
<symbol id="icon-Burger" viewBox="0 0 46 32">
<path fill="none" stroke="#d41443" style="stroke: var(--color1, #d41443)" stroke-linejoin="miter" stroke-linecap="butt" stroke-miterlimit="4" stroke-width="2.2857" d="M0 2.286h45.714"></path>
<path fill="none" stroke="#d41443" style="stroke: var(--color1, #d41443)" stroke-linejoin="miter" stroke-linecap="butt" stroke-miterlimit="4" stroke-width="2.2857" d="M0 16h45.714"></path>
<path fill="none" stroke="#d41443" style="stroke: var(--color1, #d41443)" stroke-linejoin="miter" stroke-linecap="butt" stroke-miterlimit="4" stroke-width="2.2857" d="M0 29.714h45.714"></path>
</symbol>
<symbol id="icon-close-mob-menu" viewBox="0 0 32 32">
<path fill="none" stroke="#fff" style="stroke: var(--color2, #fff)" stroke-linejoin="miter" stroke-linecap="butt" stroke-miterlimit="4" stroke-width="2" d="M2.519 2l26.963 28"></path>
<path fill="none" stroke="#fff" style="stroke: var(--color2, #fff)" stroke-linejoin="miter" stroke-linecap="butt" stroke-miterlimit="4" stroke-width="2" d="M2 29.481l28-26.963"></path>
</symbol>
<symbol id="icon-logo" viewBox="0 0 32 32">
<path  d="M22.492 8.768c-2.015 0-3.654-1.639-3.654-3.654s1.639-3.654 3.654-3.654 3.654 1.639 3.654 3.654-1.639 3.654-3.654 3.654zM22.492 3.286c-1.008 0-1.827 0.82-1.827 1.827s0.82 1.827 1.827 1.827 1.827-0.82 1.827-1.827-0.82-1.827-1.827-1.827z"></path>
<path  d="M11.341 14.249c-2.779 0-4.574-1.523-4.574-3.881 0-1.573 0.747-2.987 2.072-3.829 0 0 0.045-0.026 0.062-0.056 0.021-0.036 0.021-0.077 0.021-0.077 0.383-3.161 3.070-5.492 6.261-5.492s5.875 2.305 6.257 5.466c0 0 0.003 0.052 0.031 0.098 0.030 0.047 0.064 0.067 0.064 0.067 1.325 0.842 2.064 2.251 2.064 3.824 0 2.357-1.795 3.881-4.574 3.881l-7.684 0z"></path>
<path  d="M19.026 15.162h-7.684c-3.282 0-5.488-1.927-5.488-4.794 0-1.798 0.801-3.385 2.211-4.407 0.579-3.422 3.582-5.962 7.119-5.962 1.768 0 3.466 0.629 4.781 1.772 1.247 1.084 2.070 2.562 2.339 4.19 1.409 1.019 2.21 2.606 2.21 4.406 0 2.867-2.205 4.794-5.488 4.794zM9.321 7.316c-1.043 0.666-1.64 1.778-1.64 3.053 0 1.83 1.403 2.967 3.66 2.967h7.684c2.258 0 3.66-1.137 3.66-2.967 0-1.278-0.598-2.39-1.641-3.053-0.088-0.056-0.23-0.167-0.347-0.352s-0.155-0.371-0.166-0.488c-0.333-2.694-2.58-4.648-5.348-4.648-2.721 0-5.018 2.005-5.351 4.667-0.010 0.116-0.044 0.281-0.142 0.449-0.106 0.184-0.256 0.303-0.37 0.372zM22.349 6.281c0.002 0.018 0.003 0.036 0.004 0.054-0.001-0.012-0.002-0.030-0.004-0.054z"></path>
<path  d="M15.183 32c-0 0 0 0 0 0-1.086-0-2.037-0.656-2.424-1.67l-5.792-15.201c-0.18-0.472 0.057-0.999 0.528-1.179s0.999 0.057 1.179 0.528l5.792 15.201c0.175 0.458 0.593 0.494 0.717 0.494v0c0.124 0 0.542-0.036 0.717-0.494l3.556-9.332c0.18-0.471 0.707-0.708 1.179-0.528s0.708 0.707 0.528 1.179l-3.555 9.332c-0.387 1.015-1.338 1.67-2.424 1.67z"></path>
<path  d="M22.349 17.092h-14.332c-0.565 0-1.024-0.458-1.024-1.023v-1.71c0-0.565 0.458-1.024 1.024-1.024h14.332c0.565 0 1.023 0.458 1.023 1.024v1.71c-0 0.565-0.458 1.023-1.024 1.023z"></path>
<path  d="M22.349 18.006h-14.332c-1.068 0-1.937-0.869-1.937-1.937v-1.71c0-1.068 0.869-1.937 1.937-1.937h14.332c1.068 0 1.937 0.869 1.937 1.937v1.71c-0 1.068-0.869 1.937-1.937 1.937zM8.018 14.249c-0.061 0-0.11 0.049-0.11 0.11v1.71c0 0.061 0.049 0.11 0.11 0.11h14.332c0.061 0 0.11-0.049 0.11-0.11v-1.71c0-0.061-0.049-0.11-0.11-0.11h-14.332z"></path>
</symbol>
<symbol id="icon-main-logo" viewBox="0 0 32 32">
<path d="M12.451 0.475c-7.952 1.743-13.497 9.853-12.166 17.806 0.824 4.816 4.151 9.505 8.269 11.596l1.743 0.887 0.095-0.729c0.063-0.38-0.032-0.76-0.222-0.824-0.158-0.063-0.792-0.412-1.362-0.792-1.552-1.046-2.154-2.503-2.154-5.196 0-2.123-0.063-2.345-0.982-3.263-0.855-0.855-0.982-1.141-0.824-2.154 0.127-0.697 0.539-1.457 1.014-1.869 0.665-0.602 0.792-0.982 0.792-2.471 0-4.309 3.548-7.699 8.428-8.016 3.042-0.19 5.291 0.475 7.224 2.186 1.996 1.774 2.852 3.453 2.852 5.798 0.032 1.616 0.158 1.996 0.919 2.756 1.204 1.236 1.172 2.788-0.095 3.992-0.887 0.824-0.951 1.014-0.951 3.39 0 3.010-0.634 4.309-2.566 5.133-0.919 0.412-1.236 0.76-1.236 1.299 0 0.412 0.095 0.729 0.19 0.729 0.824 0 4.246-2.313 5.766-3.929 8.618-8.966 4.246-23.446-7.921-26.329-2.408-0.57-4.214-0.57-6.812 0z"></path>
<path d="M14.162 7.319c-1.457 0.348-2.82 1.014-3.358 1.648-0.285 0.38-0.19 0.602 0.602 1.267 2.313 1.964 7.731 1.743 9.6-0.348 0.602-0.634 0.57-0.665-1.109-1.616-0.919-0.539-1.901-0.982-2.186-0.982s-0.919-0.063-1.426-0.127c-0.507-0.095-1.457-0.032-2.123 0.158z"></path>
<path d="M8.713 12.483c-0.127 0.57-0.158 1.394-0.095 1.806l0.095 0.76 7.224 0.095 7.192 0.063v-1.711c0-0.95-0.158-1.838-0.317-1.933-0.19-0.095-0.697 0.063-1.204 0.412-2.756 1.933-7.857 2.028-11.057 0.19-0.729-0.412-1.394-0.76-1.489-0.76s-0.253 0.475-0.348 1.077z"></path>
<path d="M6.97 18.028c0 0.317 0.222 0.697 0.507 0.792s4.087 0.19 8.491 0.19c6.21 0 8.111-0.095 8.586-0.412 1.362-1.014 0.285-1.172-8.745-1.172-8.459 0-8.84 0.032-8.84 0.602z"></path>
<path d="M8.554 22.653c0 0.982 0.222 2.186 0.475 2.693 0.855 1.648 1.806 1.901 7.16 1.901h4.784l1.077-1.077c1.014-1.014 1.077-1.204 1.077-3.168 0-2.028-0.032-2.091-0.792-2.091-0.729 0-0.792 0.127-0.792 1.394 0 2.788-2.82 4.055-4.784 2.123-0.729-0.729-0.919-1.236-0.919-2.218v-1.299h-7.287v1.743z"></path>
<path d="M17.806 22.083c0.063 0.887 0.253 1.236 0.697 1.331 0.729 0.127 1.457-0.76 1.457-1.774 0-0.634-0.158-0.729-1.141-0.729-1.109 0-1.109 0.032-1.014 1.172z"></path>
<path d="M12.356 30.226c0 0.951 0.127 1.077 0.982 1.267 1.267 0.253 3.739 0.253 5.006 0 0.855-0.19 0.982-0.317 0.982-1.267v-1.077h-6.97v1.077z"></path>
</symbol>
</defs>
</svg>
