<svg aria-hidden="true" style="position: absolute; width: 0; height: 0; overflow: hidden;" version="1.1" xmlns="http://www.w3.org/2000/svg" xmlns:xlink="http://www.w3.org/1999/xlink">
<defs>
<symbol id="icon-Vector-btn" viewBox="0 0 22 32">
<path fill="none" stroke="#d41443" style="stroke: var(--color1, #d41443)" stroke-linejoin="round" stroke-linecap="round" stroke-miterlimit="4" stroke-width="6.4" d="M3.321 3.2l14.974 12.8-14.974 12.8"></path>
</symbol>
<symbol id="icon-Burger" viewBox="0 0 46 32">
<path fill="none" stroke="#d41443" style="stroke: var(--color1, #d41443)" stroke-linejoin="miter" stroke-linecap="butt" stroke-miterlimit="4" stroke-width="2.2857" d="M0 2.286h45.714"></path>
<path fill="none" stroke="#d41443" style="stroke: var(--color1, #d41443)" stroke-linejoin="miter" stroke-linecap="butt" stroke-miterlimit="4" stroke-width="2.2857" d="M0 16h45.714"></path>
<path fill="none" stroke="#d41443" style="stroke: var(--color1, #d41443)" stroke-linejoin="miter" stroke-linecap="butt" stroke-miterlimit="4" stroke-width="2.2857" d="M0 29.714h45.714"></path>
</symbol>
<symbol id="icon-close-mob-menu" viewBox="0 0 32 32">
<path fill="none" stroke="#fff" style="stroke: var(--color2, #fff)" stroke-linejoin="miter" stroke-linecap="butt" stroke-miterlimit="4" stroke-width="2" d="M2.519 2l26.963 28"></path>
<path fill="none" stroke="#fff" style="stroke: var(--color2, #fff)" stroke-linejoin="miter" stroke-linecap="butt" stroke-miterlimit="4" stroke-width="2" d="M2 29.481l28-26.963"></path>
</symbol>
<symbol id="icon-logo" viewBox="0 0 32 32">
<path  d="M22.492 8.768c-2.015 0-3.654-1.639-3.654-3.654s1.639-3.654 3.654-3.654 3.654 1.639 3.654 3.654-1.639 3.654-3.654 3.654zM22.492 3.286c-1.008 0-1.827 0.82-1.827 1.827s0.82 1.827 1.827 1.827 1.827-0.82 1.827-1.827-0.82-1.827-1.827-1.827z"></path>
<path  d="M11.341 14.249c-2.779 0-4.574-1.523-4.574-3.881 0-1.573 0.747-2.987 2.072-3.829 0 0 0.045-0.026 0.062-0.056 0.021-0.036 0.021-0.077 0.021-0.077 0.383-3.161 3.070-5.492 6.261-5.492s5.875 2.305 6.257 5.466c0 0 0.003 0.052 0.031 0.098 0.030 0.047 0.064 0.067 0.064 0.067 1.325 0.842 2.064 2.251 2.064 3.824 0 2.357-1.795 3.881-4.574 3.881l-7.684 0z"></path>
<path  d="M19.026 15.162h-7.684c-3.282 0-5.488-1.927-5.488-4.794 0-1.798 0.801-3.385 2.211-4.407 0.579-3.422 3.582-5.962 7.119-5.962 1.768 0 3.466 0.629 4.781 1.772 1.247 1.084 2.070 2.562 2.339 4.19 1.409 1.019 2.21 2.606 2.21 4.406 0 2.867-2.205 4.794-5.488 4.794zM9.321 7.316c-1.043 0.666-1.64 1.778-1.64 3.053 0 1.83 1.403 2.967 3.66 2.967h7.684c2.258 0 3.66-1.137 3.66-2.967 0-1.278-0.598-2.39-1.641-3.053-0.088-0.056-0.23-0.167-0.347-0.352s-0.155-0.371-0.166-0.488c-0.333-2.694-2.58-4.648-5.348-4.648-2.721 0-5.018 2.005-5.351 4.667-0.010 0.116-0.044 0.281-0.142 0.449-0.106 0.184-0.256 0.303-0.37 0.372zM22.349 6.281c0.002 0.018 0.003 0.036 0.004 0.054-0.001-0.012-0.002-0.030-0.004-0.054z"></path>
<path  d="M15.183 32c-0 0 0 0 0 0-1.086-0-2.037-0.656-2.424-1.67l-5.792-15.201c-0.18-0.472 0.057-0.999 0.528-1.179s0.999 0.057 1.179 0.528l5.792 15.201c0.175 0.458 0.593 0.494 0.717 0.494v0c0.124 0 0.542-0.036 0.717-0.494l3.556-9.332c0.18-0.471 0.707-0.708 1.179-0.528s0.708 0.707 0.528 1.179l-3.555 9.332c-0.387 1.015-1.338 1.67-2.424 1.67z"></path>
<path  d="M22.349 17.092h-14.332c-0.565 0-1.024-0.458-1.024-1.023v-1.71c0-0.565 0.458-1.024 1.024-1.024h14.332c0.565 0 1.023 0.458 1.023 1.024v1.71c-0 0.565-0.458 1.023-1.024 1.023z"></path>
<path  d="M22.349 18.006h-14.332c-1.068 0-1.937-0.869-1.937-1.937v-1.71c0-1.068 0.869-1.937 1.937-1.937h14.332c1.068 0 1.937 0.869 1.937 1.937v1.71c-0 1.068-0.869 1.937-1.937 1.937zM8.018 14.249c-0.061 0-0.11 0.049-0.11 0.11v1.71c0 0.061 0.049 0.11 0.11 0.11h14.332c0.061 0 0.11-0.049 0.11-0.11v-1.71c0-0.061-0.049-0.11-0.11-0.11h-14.332z"></path>
</symbol>
</defs>
</svg>
